# xmcd
#
# Track frame offsets: 
#        150
#        15562
#        32481
#        51223
#        70084
#        92001
#        113407
#        134761
#        150736
#        176718
#        193790
#        234302
#        249451
#        268038
#        285007
#
# Disc length: 4002 seconds
#
# Revision: 0
# Processed by: cddbd v1.5.1PL0 Copyright (c) Steve Scherf et al.
# Submitted via: ExactAudioCopy v0.95a5
#
DISCID=c20fa00f
DTITLE=Van Morrison - Badeparken, Sandefjord
DYEAR=2005
DGENRE=Celtic
TTITLE0=This Love Of Mine
TTITLE1=Whatever Happened To PJ Proby?
TTITLE2=Whinin' Boy Moan
TTITLE3=Magic Time
TTITLE4=Too Many Myths
TTITLE5=Stranded
TTITLE6=Fame
TTITLE7=Stop Drinking
TTITLE8=Moondance
TTITLE9=Lonely And Blue
TTITLE10=Little Village
TTITLE11=Precious Time
TTITLE12=The Lion This Time
TTITLE13=Cleaning Windows
TTITLE14=Days Like This
EXTD=
EXTT0=
EXTT1=
EXTT2=
EXTT3=
EXTT4=
EXTT5=
EXTT6=
EXTT7=
EXTT8=
EXTT9=
EXTT10=
EXTT11=
EXTT12=
EXTT13=
EXTT14=
PLAYORDER=
